<svg width="39" height="55" viewBox="0 0 39 55" fill="none" xmlns="http://www.w3.org/2000/svg">
<path d="M32.799 49.3611C32.1501 49.3611 31.6238 49.8874 31.6238 50.5363V51.4744C31.6238 52.1224 31.0966 52.6496 30.4486 52.6496H3.52564C2.87763 52.6496 2.35043 52.1224 2.35043 51.4744V3.52564C2.35043 2.87763 2.87763 2.35043 3.52564 2.35043H10.2973L10.6997 4.09962C10.949 5.18293 11.9106 5.95034 13.0189 5.95034H21.3158C22.4241 5.95034 23.3857 5.18293 23.635 4.09962L24.0373 2.35043H30.4486C31.0966 2.35043 31.6238 2.87763 31.6238 3.52564V19.6627C31.6238 20.3117 32.1501 20.8379 32.799 20.8379C33.448 20.8379 33.9743 20.3117 33.9743 19.6627V3.52564C33.9743 1.5816 32.3927 0 30.4486 0H3.52564C1.5816 0 0 1.5816 0 3.52564V51.4744C0 53.4184 1.5816 55 3.52564 55H30.4486C32.3927 55 33.9743 53.4184 33.9743 51.4744V50.5363C33.9743 49.8872 33.448 49.3611 32.799 49.3611Z" fill="#D30000"/>
<path d="M38.028 30.9203C38.01 30.6232 37.8799 30.3441 37.664 30.1392C37.4482 29.9343 37.1626 29.819 36.865 29.8164C33.6418 29.7889 31.1598 28.7563 29.0541 26.5673C28.5922 26.0873 27.8039 26.086 27.341 26.5669C25.2345 28.755 22.7522 29.7875 19.5292 29.8164C19.2317 29.8191 18.9463 29.9345 18.7305 30.1394C18.5148 30.3443 18.3848 30.6233 18.3667 30.9203C18.0845 35.5553 19.1338 40.2605 21.7994 44.1067C23.3329 46.3195 25.3372 48.2002 27.5959 49.5455C27.9967 49.7663 28.3977 49.7663 28.7986 49.5455C31.0572 48.2002 33.0616 46.3195 34.5951 44.1067C37.262 40.259 38.3097 35.5533 38.028 30.9203ZM26.8291 41.1445L24.2928 38.6336C23.8316 38.1769 23.8278 37.4327 24.2845 36.9716C24.7412 36.5102 25.4854 36.5068 25.9465 36.9632L27.5201 38.5211L31.0758 33.7327C31.4627 33.2116 32.1988 33.1028 32.7199 33.4899C33.241 33.8768 33.3497 34.6129 32.9627 35.134L28.5994 41.0101C28.3963 41.2836 27.7742 41.8372 26.8291 41.1445ZM12.9408 13.9822C12.9485 11.8092 11.88 10.4548 9.69961 10.459C7.52194 10.4561 6.43004 11.7906 6.4398 13.9729C6.43051 16.1471 7.513 17.5143 9.69032 17.5103C11.8624 17.5154 12.9502 16.1486 12.9408 13.9822ZM9.69032 16.2921C8.35575 16.2712 7.96887 15.3049 7.9577 13.9822C7.96781 12.6586 8.36586 11.6886 9.69961 11.6678C10.8485 11.6678 11.4229 12.4392 11.4229 13.9822C11.4229 15.522 10.8456 16.2921 9.69032 16.2921ZM17.2439 17.4165V11.7757H19.0979V10.5668H13.9419V11.7757H15.796V17.4165H17.2439ZM25.1196 12.7033C25.1104 10.2312 22.0952 10.3965 20.4026 10.5668V17.4164H21.8503V14.9803C23.3709 15.1515 25.1181 14.4883 25.1196 12.7033ZM22.3266 13.7901H21.8501V11.7568H22.5087C24.1561 11.7659 23.8759 13.7833 22.3266 13.7901ZM15.2885 24.4786H18.6858C19.3347 24.4786 19.861 23.9523 19.861 23.3034C19.861 22.6544 19.3347 22.1282 18.6858 22.1282H15.2885C14.6395 22.1282 14.1132 22.6544 14.1132 23.3034C14.1132 23.9523 14.6394 24.4786 15.2885 24.4786ZM23.8629 24.4786H27.2602C27.9092 24.4786 28.4355 23.9523 28.4355 23.3034C28.4355 22.6544 27.9092 22.1282 27.2602 22.1282H23.8629C23.214 22.1282 22.6877 22.6544 22.6877 23.3034C22.6877 23.9523 23.2139 24.4786 23.8629 24.4786ZM6.87651 22.1282C6.22755 22.1282 5.70129 22.6544 5.70129 23.3034C5.70129 23.9523 6.22755 24.4786 6.87651 24.4786H10.2738C10.9228 24.4786 11.449 23.9523 11.449 23.3034C11.449 22.6544 10.9228 22.1282 10.2738 22.1282H6.87651Z" fill="#D30000"/>
<path d="M32.7991 26.0135C33.5081 26.0135 34.083 25.4421 34.083 24.7372C34.083 24.0323 33.5081 23.4609 32.7991 23.4609C32.09 23.4609 31.5151 24.0323 31.5151 24.7372C31.5151 25.4421 32.09 26.0135 32.7991 26.0135Z" fill="#D30000"/>
</svg>
