<svg width="20" height="20" viewBox="0 0 20 20" fill="none" xmlns="http://www.w3.org/2000/svg">
<path d="M5.00016 17.5C4.53016 17.5 4.13489 17.3397 3.81433 17.0192C3.49377 16.6986 3.3335 16.3033 3.3335 15.8333V14.8717C3.3335 14.4989 3.46461 14.1814 3.72683 13.9192C3.98905 13.6569 4.30655 13.5258 4.67933 13.5258H5.8335V3.84667C5.8335 3.47333 5.96461 3.15556 6.22683 2.89333C6.48905 2.63111 6.80683 2.5 7.18016 2.5H15.321C15.6932 2.5 16.0107 2.63111 16.2735 2.89333C16.5357 3.15556 16.6668 3.47333 16.6668 3.84667V15.8333C16.6668 16.3033 16.5066 16.6986 16.186 17.0192C15.8654 17.3397 15.4702 17.5 15.0002 17.5H5.00016ZM15.0002 16.6667C15.2363 16.6667 15.4343 16.5867 15.5943 16.4267C15.7543 16.2667 15.8341 16.0689 15.8335 15.8333V3.84667C15.8335 3.69667 15.7854 3.57361 15.6893 3.4775C15.5932 3.38139 15.4704 3.33333 15.321 3.33333H7.17933C7.02988 3.33333 6.90711 3.38139 6.811 3.4775C6.71489 3.57361 6.66683 3.69667 6.66683 3.84667V13.525H12.821C13.1932 13.525 13.5107 13.6561 13.7735 13.9183C14.0357 14.1806 14.1668 14.4981 14.1668 14.8708V15.8333C14.1668 16.0694 14.2468 16.2675 14.4068 16.4275C14.5668 16.5875 14.7646 16.6672 15.0002 16.6667ZM8.23766 6.9875C8.11877 6.9875 8.01961 6.9475 7.94016 6.8675C7.86016 6.78806 7.82016 6.68917 7.82016 6.57083C7.82016 6.45194 7.86016 6.35278 7.94016 6.27333C8.01961 6.19389 8.11877 6.15417 8.23766 6.15417H14.2627C14.3816 6.15417 14.4807 6.19389 14.5602 6.27333C14.6402 6.35278 14.6802 6.45194 14.6802 6.57083C14.6802 6.68917 14.6402 6.78806 14.5602 6.8675C14.4807 6.9475 14.3816 6.9875 14.2627 6.9875H8.23766ZM8.23766 9.295C8.11877 9.295 8.01961 9.25528 7.94016 9.17583C7.86016 9.09583 7.82016 8.99667 7.82016 8.87833C7.82016 8.76 7.86016 8.66083 7.94016 8.58083C8.02016 8.50083 8.11933 8.46111 8.23766 8.46167H14.2627C14.3816 8.46167 14.4807 8.50139 14.5602 8.58083C14.6402 8.66083 14.6802 8.76 14.6802 8.87833C14.6802 8.99667 14.6402 9.09583 14.5602 9.17583C14.4802 9.25583 14.381 9.29556 14.2627 9.295H8.23766ZM5.00016 16.6667H13.3335V14.8717C13.3335 14.7222 13.2854 14.5994 13.1893 14.5033C13.0932 14.4072 12.9704 14.3592 12.821 14.3592H4.67933C4.52988 14.3592 4.40711 14.4072 4.311 14.5033C4.21488 14.5994 4.16683 14.7222 4.16683 14.8717V15.8333C4.16683 16.0694 4.24683 16.2675 4.40683 16.4275C4.56683 16.5875 4.76461 16.6672 5.00016 16.6667ZM5.00016 16.6667H4.16683H13.3335H5.00016Z" fill="black"/>
</svg>
